<?xml version="1.0" standalone="no"?><!DOCTYPE svg PUBLIC "-//W3C//DTD SVG 1.1//EN" "http://www.w3.org/Graphics/SVG/1.1/DTD/svg11.dtd"><svg class="icon" width="200px" height="200.00px" viewBox="0 0 1024 1024" version="1.1" xmlns="http://www.w3.org/2000/svg"><path fill="#d81e06" d="M349.866667 917.333333V106.666667c0.456533-5.794133 1.3056-5.956267 2.4448-7.522134 2.1632-2.9824 3.7888-4.7616 10.3552-5.277866h298.666666l2.001067 0.157866c9.0752 2.176 10.120533 4.036267 10.798933 12.642134v512c-0.162133 2.048-0.6784 3.972267-1.5616 5.755733a12.7232 12.7232 0 0 1-2.1888 3.293867l-298.666666 298.666666c-7.5904 6.907733-21.3248 2.103467-21.8496-9.0496z m298.666666-311.466666V119.466667H375.466667v486.4h273.066666z m-149.333333-290.133334h-18.453333c-5.474133-0.170667-5.832533-1.224533-7.488-2.4192-4.164267-3.003733-6.250667-7.296-4.9408-13.444266l31.253333-126.792534c0.657067-2.3424 0.938667-2.688 1.5232-3.6352 2.487467-4.053333 7.214933-6.3488 12.091733-6.045866 5.4016 0.669867 9.472 3.3536 11.242667 9.681066l31.253333 126.792534c1.143467 5.354667 0.2048 5.960533-0.558933 7.850666-1.92 4.7616-5.585067 7.816533-11.869867 8.0128H524.8v209.066667h31.253333v25.6h-88.106666v-25.6H499.2V315.733333z" /></svg>