<?xml version="1.0" standalone="no"?><!DOCTYPE svg PUBLIC "-//W3C//DTD SVG 1.1//EN" "http://www.w3.org/Graphics/SVG/1.1/DTD/svg11.dtd"><svg class="icon" width="200px" height="200.00px" viewBox="0 0 1024 1024" version="1.1" xmlns="http://www.w3.org/2000/svg"><path fill="#d81e06" d="M711.808 930.133333H312.192c-15.274667-1.156267-13.312-10.4832-12.416-15.863466l199.808-810.666667c3.114667-9.429333 5.248-10.9824 15.402667-9.386667 4.352 1.408 7.125333 2.414933 9.429333 9.386667l199.808 810.666667c1.322667 7.825067-1.664 15.0528-12.416 15.863466zM328.533333 904.533333h366.933334L512 160.1536C450.858667 408.277333 389.674667 656.405333 328.533333 904.533333z m170.666667-345.6h-18.474667c-2.602667-0.081067-3.285333-0.354133-4.650666-0.887466-5.802667-2.274133-9.301333-7.739733-7.765334-14.976l31.274667-126.792534c0.64-2.3424 0.938667-2.688 1.493333-3.6352 2.517333-4.0576 7.210667-6.3488 12.117334-6.045866 2.389333 0.298667 2.773333 0.529067 3.797333 0.964266 3.669333 1.5488 6.357333 4.868267 7.424 8.7168l31.274667 126.792534c0.554667 2.555733 0.426667 3.310933 0.256 4.765866-0.810667 6.148267-5.290667 10.8672-12.672 11.0976H524.8v298.666667h-25.6v-298.666667z" /></svg>