<?xml version="1.0" standalone="no"?><!DOCTYPE svg PUBLIC "-//W3C//DTD SVG 1.1//EN" "http://www.w3.org/Graphics/SVG/1.1/DTD/svg11.dtd"><svg class="icon" width="200px" height="200.00px" viewBox="0 0 1024 1024" version="1.1" xmlns="http://www.w3.org/2000/svg"><path fill="#d81e06" d="M711.808 930.133333H312.192c-7.936-0.597333-14.208-5.256533-12.416-15.863466l199.808-810.666667c3.114667-9.429333 5.248-10.9824 15.402667-9.386667 7.253333 2.3552 7.978667 4.962133 9.429333 9.386667l199.808 810.666667c1.322667 7.825067-1.664 15.0528-12.416 15.863466zM328.533333 904.533333h366.933334L512 160.1536C450.858667 408.277333 389.674667 656.405333 328.533333 904.533333z m170.666667-345.6h-18.474667c-5.461333-0.170667-5.802667-1.224533-7.466666-2.4192-4.181333-3.003733-6.272-7.296-4.949334-13.444266l31.274667-126.792534c0.64-2.3424 0.938667-2.688 1.493333-3.6352 2.517333-4.0576 7.210667-6.3488 12.117334-6.045866 5.376 0.669867 9.472 3.3536 11.221333 9.681066l31.274667 126.792534c0.554667 2.555733 0.426667 3.310933 0.256 4.765866-0.810667 6.148267-5.290667 10.8672-12.672 11.0976H524.8v163.4688c35.669333 7.3344 64.298667 43.626667 59.050667 81.322667C579.029333 837.9136 546.730667 866.133333 512 866.133333c-48.256 0-88.832-58.176-64.597333-105.5488 10.154667-19.793067 29.824-34.103467 51.797333-38.276266V558.933333z m12.202667 187.7376c-31.018667 0.5888-56.234667 37.149867-41.728 67.255467 12.672 26.282667 52.608 34.688 74.709333 13.640533 14.464-13.7984 18.602667-37.329067 9.429333-55.317333-8.021333-15.633067-23.936-25.693867-42.410666-25.578667z" /></svg>