<?xml version="1.0" standalone="no"?><!DOCTYPE svg PUBLIC "-//W3C//DTD SVG 1.1//EN" "http://www.w3.org/Graphics/SVG/1.1/DTD/svg11.dtd"><svg class="icon" width="200px" height="200.00px" viewBox="0 0 1024 1024" version="1.1" xmlns="http://www.w3.org/2000/svg"><path fill="#d81e06" d="M353.642667 310.574933l147.869866-211.246933c4.0192-5.192533 4.663467-5.742933 11.716267-5.4016 5.632 0.814933 5.952 1.130667 9.258667 5.4016l147.409066 210.5856c3.093333 2.193067 3.933867 5.448533 4.2368 10.0864v597.333333c-0.832 12.714667-6.677333 12.398933-12.8 12.8H362.666667l-0.469334-0.034133-0.1152-0.008533h-0.004266a30.08 30.08 0 0 1-1.617067-0.1664c-10.4704-1.348267-10.218667-6.848-10.594133-12.590934V320c0.247467-3.767467 1.3056-7.099733 3.776-9.425067zM524.8 332.8v571.733333h123.733333V332.8h-123.733333z m-149.333333 0v571.733333h123.733333V332.8H375.466667z m11.784533-25.6h249.4976L512 128.9856 387.2512 307.2z" /></svg>