<?xml version="1.0" standalone="no"?><!DOCTYPE svg PUBLIC "-//W3C//DTD SVG 1.1//EN" "http://www.w3.org/Graphics/SVG/1.1/DTD/svg11.dtd"><svg class="icon" width="200px" height="200.00px" viewBox="0 0 1024 1024" version="1.1" xmlns="http://www.w3.org/2000/svg"><path fill="#d81e06" d="M529.066667 358.144l226.944 226.901333-24.149334 24.149334L529.066667 406.4v299.093333c38.186667 7.381333 71.381333 38.485333 79.061333 77.184 8.704 43.818667-16.768 91.989333-57.984 109.44-45.482667 19.242667-104.234667-2.346667-126.208-47.274666-26.24-53.589333 9.045333-127.616 70.997333-139.392V406.4l-202.794666 202.794667-24.149334-24.149334 219.861334-219.861333 7.082666-7.04V128.256h34.133334v229.888z m-0.085334 382.08h-32.384c-35.968 10.581333-61.013333 56.32-40.192 93.013333 18.858667 33.28 70.229333 42.197333 99.072 15.317334 32.128-29.909333 20.821333-95.36-26.496-108.330667z" /></svg>