<?xml version="1.0" standalone="no"?><!DOCTYPE svg PUBLIC "-//W3C//DTD SVG 1.1//EN" "http://www.w3.org/Graphics/SVG/1.1/DTD/svg11.dtd"><svg class="icon" width="200px" height="200.00px" viewBox="0 0 1024 1024" version="1.1" xmlns="http://www.w3.org/2000/svg"><path fill="#d81e06" d="M514.816 94.178133c6.0416 1.8432 4.718933 1.536 7.6672 5.1456l149.333333 213.333334c1.403733 2.368 1.962667 2.696533 2.3168 7.342933v597.333333c-1.024 13.034667-5.128533 12.194133-12.8 12.8H362.666667c-5.794133-0.456533-5.960533-1.309867-7.522134-2.4448-2.9824-2.1632-4.7616-3.7888-5.277866-10.3552V320c0.354133-4.6464 0.913067-4.974933 2.3168-7.338667l149.333333-213.333333c2.9312-3.5968 4.8768-6.4 13.2992-5.149867zM375.466667 324.036267V904.533333h273.066666V324.036267L512 128.981333 375.466667 324.036267z" /></svg>