<?xml version="1.0" standalone="no"?><!DOCTYPE svg PUBLIC "-//W3C//DTD SVG 1.1//EN" "http://www.w3.org/Graphics/SVG/1.1/DTD/svg11.dtd"><svg class="icon" width="200px" height="200.00px" viewBox="0 0 1024 1024" version="1.1" xmlns="http://www.w3.org/2000/svg"><path fill="#d81e06" d="M529.066667 358.144l226.9312 226.901333-24.136534 24.149334L529.066667 406.4v299.093333c38.203733 7.381333 71.3856 38.485333 79.061333 77.184 1.2544 6.314667 1.796267 12.757333 1.681067 19.157334h0.192c0 40.448-24.584533 75.221333-59.6224 90.154666l-0.247467 0.128-0.0768 0.042667a98.218667 98.218667 0 0 1-38.0544 7.637333c-38.493867 0-71.829333-22.229333-87.854933-54.528-0.072533-0.170667-0.145067-0.298667-0.213334-0.426666l-0.093866-0.213334-0.0384-0.085333h-0.0128l-0.021334-0.042667-0.021333-0.085333a97.326933 97.326933 0 0 1-9.745067-42.581333h1.258667c1.8816-43.904 33.297067-87.552 79.675733-96.384V406.4l-202.794666 202.794667-24.136534-24.149334L494.933333 358.144V128.256h34.133334v229.888z m44.373333 443.690667c-1.006933-31.146667-22.0672-62.549333-59.362133-63.872h-2.496c-32.896 0.298667-61.499733 30.805333-62.877867 63.872H573.44z" /></svg>