<?xml version="1.0" standalone="no"?><!DOCTYPE svg PUBLIC "-//W3C//DTD SVG 1.1//EN" "http://www.w3.org/Graphics/SVG/1.1/DTD/svg11.dtd"><svg class="icon" width="200px" height="200.00px" viewBox="0 0 1024 1024" version="1.1" xmlns="http://www.w3.org/2000/svg"><path fill="#d81e06" d="M352.354133 312.4096l149.1584-213.0816c4.0192-5.192533 4.663467-5.742933 11.716267-5.4016 5.632 0.814933 5.952 1.130667 9.258667 5.4016l147.848533 211.208533c2.129067 1.9328 3.4944 4.868267 3.797333 9.463467v597.333333c-0.443733 6.801067-3.5456 12.194133-12.8 12.8H362.666667c-5.141333-0.337067-5.922133-1.211733-7.790934-2.645333-3.093333-2.372267-4.744533-6.148267-5.009066-10.154667V320c0.324267-4.9536 1.147733-5.8624 2.487466-7.5904zM375.466667 332.8v571.733333h273.066666V332.8H375.466667z m138.5088 100.612267c6.007467 1.262933 6.3872 1.710933 9.344 6.677333l95.253333 180.5824c2.645333 5.6704 2.5344 6.5152 0 11.946667l-95.253333 180.5824c-4.821333 8.098133-17.514667 8.610133-22.6432 0L405.4272 632.618667c-2.645333-5.666133-2.5344-6.5152 0-11.946667l95.249067-180.5824c3.997867-6.711467 6.946133-7.3344 13.2992-6.677333z m-82.756267 193.233066L512 779.793067l80.7808-153.147734L512 473.4976l-80.7808 153.147733z" /></svg>