<?xml version="1.0" standalone="no"?><!DOCTYPE svg PUBLIC "-//W3C//DTD SVG 1.1//EN" "http://www.w3.org/Graphics/SVG/1.1/DTD/svg11.dtd"><svg class="icon" width="200px" height="200.00px" viewBox="0 0 1024 1024" version="1.1" xmlns="http://www.w3.org/2000/svg"><path fill="#d81e06" d="M512 267.818667l240.554667-64.469334c2.944 10.965333 5.888 21.973333 8.832 32.981334l-183.466667 49.152 183.466667 49.152-8.832 32.938666-123.050667-32.938666L529.066667 307.712v142.72c26.965333 7.466667 46.805333 32.213333 46.805333 61.568 0 9.813333-2.218667 19.114667-6.186667 27.434667a64.187733 64.187733 0 0 1-40.618666 34.133333v249.386667h-34.133334v-249.386667c-26.965333-7.466667-46.805333-32.213333-46.805333-61.568 0-25.514667 15.018667-47.573333 36.650667-57.770667v-0.042666c0.085333 0 0.170667-0.042667 0.256-0.085334 3.370667-1.578667 6.570667-2.816 9.898666-3.754666V307.712L271.445333 367.573333l-8.832-32.938666 183.466667-49.152-183.466667-49.152 8.832-32.981334L512 267.818667z" /></svg>