<?xml version="1.0" standalone="no"?><!DOCTYPE svg PUBLIC "-//W3C//DTD SVG 1.1//EN" "http://www.w3.org/Graphics/SVG/1.1/DTD/svg11.dtd"><svg class="icon" width="200px" height="200.00px" viewBox="0 0 1024 1024" version="1.1" xmlns="http://www.w3.org/2000/svg"><path fill="#d81e06" d="M529.066667 358.144l226.9312 226.901333-24.136534 24.149334L529.066667 406.4v142.037333c26.973867 7.466667 46.801067 32.213333 46.801066 61.568 0 9.813333-2.218667 19.114667-6.1824 27.434667h-0.008533a64.098133 64.098133 0 0 1-40.610133 34.133333v228.224h-34.133334V671.573333c-26.973867-7.509333-46.801067-32.213333-46.801066-61.568 0-25.514667 14.997333-47.573333 36.6464-57.770666l0.0128-0.042667H484.846933l0.174934-0.085333c3.374933-1.578667 6.592-2.816 9.911466-3.797334V406.4l-202.794666 202.794667-24.136534-24.149334L494.933333 358.144V128.256h34.133334v229.888z" /></svg>