<?xml version="1.0" standalone="no"?><!DOCTYPE svg PUBLIC "-//W3C//DTD SVG 1.1//EN" "http://www.w3.org/Graphics/SVG/1.1/DTD/svg11.dtd"><svg class="icon" width="200px" height="200.00px" viewBox="0 0 1024 1024" version="1.1" xmlns="http://www.w3.org/2000/svg"><path fill="#d81e06" d="M529.066667 358.144l226.944 226.901333-24.149334 24.149334L529.066667 406.4v258.346667c38.186667 7.424 71.381333 38.485333 79.061333 77.184 6.357333 32.042667-5.546667 66.389333-28.501333 89.386666l33.408 57.856-29.525334 17.066667-32.042666-55.424c-0.426667 0.170667-0.896 0.384-1.322667 0.554667-24.448 10.368-52.693333 8.917333-77.013333-1.621334l-32.597334 56.490667-29.568-17.066667 33.450667-57.941333a90.372267 90.372267 0 0 1-20.48-27.136c-26.24-53.546667 9.045333-127.573333 70.997333-139.392V406.4l-202.794666 202.794667-24.149334-24.149334 219.861334-219.861333 7.082666-7.04V128.256h34.133334v229.888z m4.864 462.250667l-20.864-36.138667h-2.133334l-20.437333 35.456c13.909333 4.778667 29.482667 5.205333 43.434667 0.682667zM494.933333 699.989333c-34.944 11.392-58.837333 55.68-38.912 91.861334 1.749333 3.157333 3.754667 6.101333 6.058667 8.789333l32.853333-56.917333v-43.733334z m34.133334-0.426666v44.16l32.853333 56.917333c23.637333-32.042667 9.984-88.874667-32.853333-101.077333z" /></svg>