<?xml version="1.0" standalone="no"?><!DOCTYPE svg PUBLIC "-//W3C//DTD SVG 1.1//EN" "http://www.w3.org/Graphics/SVG/1.1/DTD/svg11.dtd"><svg class="icon" width="200px" height="200.00px" viewBox="0 0 1024 1024" version="1.1" xmlns="http://www.w3.org/2000/svg"><path fill="#d81e06" d="M264.588984 999.739885v-24.2514h74.379923V626.202318c0-277.204259 0.843421-349.310614 4.045975-349.420625 2.224675-0.073341 41.767658-62.645375 87.862431-139.066622C476.984309 61.306048 515.25605-0.654812 515.928342 0.005256c1.075667 1.100114 92.812944 152.157977 148.637613 244.763122l20.57213 34.164649-0.085565 348.271617-0.085564 348.283841h74.441041V1024.003508H264.588984z m371.924066-370.298343v-346.046942H387.483931v692.093885H636.51305z m-75.443367-460.055414c-21.892267-36.022619-41.180931-67.962593-42.843326-70.957347-2.432474-4.376009-10.292177 6.576236-39.457418 54.981248-20.04652 33.247887-39.457419 65.175637-43.148913 70.945124l-6.722918 10.5122h171.984475z" /></svg>