<?xml version="1.0" standalone="no"?><!DOCTYPE svg PUBLIC "-//W3C//DTD SVG 1.1//EN" "http://www.w3.org/Graphics/SVG/1.1/DTD/svg11.dtd"><svg t="1709955466597" class="icon" viewBox="0 0 1024 1024" version="1.1" xmlns="http://www.w3.org/2000/svg" p-id="50701" xmlns:xlink="http://www.w3.org/1999/xlink" width="200" height="200"><path d="M996.171294 666.202353l-325.270588-187.934118a22.287059 22.287059 0 0 0-30.659765 8.432941 23.009882 23.009882 0 0 0 8.432941 31.081412l325.270589 187.934118c3.433412 2.108235 7.288471 3.011765 11.023058 3.011765 7.830588 0 15.420235-4.096 19.576471-11.444706a22.889412 22.889412 0 0 0-8.372706-31.021177M681.261176 939.309176l-146.130823-84.449882V83.004235a22.648471 22.648471 0 0 0-20.178824-22.64847L512.542118 60.235294l-2.228706 0.120471a22.648471 22.648471 0 0 0-20.178824 22.588235v316.837647L29.033412 666.202353a22.889412 22.889412 0 0 0-8.432941 31.021176 22.467765 22.467765 0 0 0 30.72 8.432942l438.814117-253.590589v402.733177L343.943529 939.309176a22.829176 22.829176 0 0 0 11.14353 42.526118 21.985882 21.985882 0 0 0 11.143529-3.011765l146.31153-84.570353 146.371764 84.570353a22.467765 22.467765 0 0 0 30.659765-8.493176 22.829176 22.829176 0 0 0-8.432941-31.021177" fill="#d81e06" p-id="50702"></path></svg>