<?xml version="1.0" standalone="no"?><!DOCTYPE svg PUBLIC "-//W3C//DTD SVG 1.1//EN" "http://www.w3.org/Graphics/SVG/1.1/DTD/svg11.dtd"><svg class="icon" width="200px" height="200.00px" viewBox="0 0 1024 1024" version="1.1" xmlns="http://www.w3.org/2000/svg"><path fill="#d81e06" d="M769.966375 181.405538l95.291077-19.456c19.692308-4.017231 39.719385 4.982154 49.762462 22.331077l83.022769 143.43877c10.043077 17.348923 7.837538 39.168-5.494154 54.153846l-64.492307 72.566154a421.572923 421.572923 0 0 1 0 115.12123l64.492307 72.566154c13.331692 14.985846 15.556923 36.804923 5.513846 54.153846l-83.042461 143.43877a46.710154 46.710154 0 0 1-49.762462 22.331077l-95.310769-19.456a419.800615 419.800615 0 0 1-99.938461 57.659076l-30.72 91.923693A46.670769 46.670769 0 0 1 595.019914 1024h-166.045539a46.670769 46.670769 0 0 1-44.268307-31.822769l-30.72-91.923693a419.800615 419.800615 0 0 1-99.958154-57.659076l-95.291077 19.456a46.710154 46.710154 0 0 1-49.762462-22.331077L25.951606 696.280615a46.454154 46.454154 0 0 1 5.494154-54.153846l64.492308-72.566154a421.572923 421.572923 0 0 1 0-115.12123L31.44576 381.873231a46.454154 46.454154 0 0 1-5.513846-54.153846l83.042461-143.43877A46.710154 46.710154 0 0 1 158.717145 161.949538l95.310769 19.456a419.800615 419.800615 0 0 1 99.938461-57.659076l30.72-91.923693A46.670769 46.670769 0 0 1 428.974375 0h166.045539a46.670769 46.670769 0 0 1 44.268308 31.822769l30.72 91.923693A419.800615 419.800615 0 0 1 769.966375 181.405538zM452.05376 78.769231l-34.855385 104.369231-33.634461 13.607384a341.031385 341.031385 0 0 0-81.191385 46.848l-28.593231 22.232616-108.20923-22.09477-59.766154 103.24677 73.137231 82.254769-4.962462 35.958154a342.803692 342.803692 0 0 0 0 93.61723l4.962462 35.958154-73.137231 82.254769 59.766154 103.24677 108.20923-22.09477 28.593231 22.252308a341.031385 341.031385 0 0 0 81.191385 46.828308l33.614769 13.627077L452.05376 945.230769h119.886769l34.855385-104.369231 33.634461-13.607384a341.031385 341.031385 0 0 0 81.191385-46.848l28.593231-22.232616 108.209231 22.09477 59.766153-103.24677-73.13723-82.254769 4.962461-35.958154a342.803692 342.803692 0 0 0 0-93.61723l-4.962461-35.958154 73.13723-82.254769-59.766153-103.24677-108.209231 22.09477-28.593231-22.252308a341.031385 341.031385 0 0 0-81.191385-46.828308L606.815606 183.138462 571.940529 78.769231h-119.886769zM511.997145 708.923077c-108.760615 0-196.923077-88.162462-196.923077-196.923077s88.162462-196.923077 196.923077-196.923077 196.923077 88.162462 196.923077 196.923077-88.162462 196.923077-196.923077 196.923077z m0-78.769231a118.153846 118.153846 0 1 0 0-236.307692 118.153846 118.153846 0 0 0 0 236.307692z"  /></svg>