<?xml version="1.0" standalone="no"?><!DOCTYPE svg PUBLIC "-//W3C//DTD SVG 1.1//EN" "http://www.w3.org/Graphics/SVG/1.1/DTD/svg11.dtd"><svg class="icon" width="200px" height="200.00px" viewBox="0 0 1024 1024" version="1.1" xmlns="http://www.w3.org/2000/svg"><path fill="#d81e06" d="M617.984 824.32l-31.232-82.432c9.728-61.952 17.92-123.392 17.92-166.4V87.552c0-22.528-18.432-40.96-40.96-40.96H457.216c-22.528 0-40.96 18.432-40.96 40.96V573.44c0 45.056 8.704 107.008 18.432 169.472l-30.72 81.92 11.264 133.632h46.08v1.024c0 7.68 5.12 14.848 12.8 16.896l8.192 2.048c9.728 2.56 19.456 4.096 29.184 4.096 10.752 0 22.016-1.536 32.768-5.12l4.096-1.536c7.168-2.56 12.288-9.216 12.288-16.896v-1.024h46.592l10.752-133.632z m-174.592 102.912L435.2 828.928l9.216-24.576c6.656 44.032 12.8 87.04 15.36 122.88h-16.384z m53.76 23.04l-16.896-146.944-7.168-12.288c-1.536-8.704-2.56-17.408-4.096-26.112-10.752-70.144-22.016-142.336-22.016-191.488V116.736h127.488v458.752c0 47.616-11.264 119.808-22.016 189.952-1.536 8.704-2.56 16.896-4.096 25.6l-6.656 11.776-16.896 146.944c-9.216 2.048-18.432 2.048-27.648 0.512z m81.408-23.04h-16.896c2.56-35.84 8.704-79.36 15.36-123.392l9.216 25.088-7.68 98.304z"  /></svg>