<?xml version="1.0" standalone="no"?><!DOCTYPE svg PUBLIC "-//W3C//DTD SVG 1.1//EN" "http://www.w3.org/Graphics/SVG/1.1/DTD/svg11.dtd"><svg class="icon" width="200px" height="200.00px" viewBox="0 0 1024 1024" version="1.1" xmlns="http://www.w3.org/2000/svg"><path fill="#d81e06" d="M511.970944 511.953664m-59.286912 0a59.286912 59.286912 0 1 0 118.573824 0 59.286912 59.286912 0 1 0-118.573824 0ZM938.624 511.914667l-425.429333 287.872-425.258667-287.658667 425.429333-287.872 425.258667 287.658667z m-755.498667 0.170666l330.069334 223.274667 330.24-223.445333-330.069334-223.274667c-110.08 74.496-220.16 148.992-330.24 223.445333z m329.642667-59.349333c38.997333 0.725333 71.04 46.890667 52.693333 84.992-16.085333 33.28-66.602667 43.648-94.336 17.194667-32.341333-30.848-15.189333-101.12 40.149334-102.186667h1.493333z m-1.066667 35.541333c-16.042667 0.298667-29.056 19.84-20.437333 35.242667 10.197333 18.261333 46.933333 11.434667 44.373333-13.952a23.867733 23.867733 0 0 0-23.936-21.290667z" /></svg>